<svg xmlns="http://www.w3.org/2000/svg" viewBox="0 0 375 812" width="375" height="812">
    <style>
        .text { font-family: -apple-system, BlinkMacSystemFont, "Segoe UI", Roboto, Helvetica, Arial, sans-serif; }
        .shadow { filter: drop-shadow(0px 4px 4px rgba(0,0,0,0.1)); }
    </style>
    <rect width="100%" height="100%" fill="#f5f5f5"/>
    <rect x="0" y="0" width="375" height="812" rx="0" fill="#f9fafb" fill-opacity="1"  /><rect x="0" y="0" width="375" height="88" rx="0" fill="#ffffff" fill-opacity="1"  /><text x="20" y="58" font-size="20" fill="#333" font-weight="normal" text-anchor="start" class="text">←</text><text x="187.5" y="58" font-size="18" fill="#333" font-weight="bold" text-anchor="middle" class="text">预约量尺</text><rect x="0" y="88" width="375" height="100" rx="0" fill="#1a1a1a" fill-opacity="1"  /><rect x="50" y="130" width="275" height="2" rx="0" fill="#444" fill-opacity="1"  /><circle cx="60" cy="131" r="12" fill="#c6a87c" stroke="#c6a87c" stroke-width="2" /><text x="60" y="136" font-size="10" fill="#fff" font-weight="normal" text-anchor="middle" class="text">1</text><text x="60" y="160" font-size="10" fill="#c6a87c" font-weight="normal" text-anchor="middle" class="text">提交信息</text><circle cx="187" cy="131" r="12" fill="#444" stroke="#666" stroke-width="2" /><text x="187" y="136" font-size="10" fill="#888" font-weight="normal" text-anchor="middle" class="text">2</text><text x="187" y="160" font-size="10" fill="#666" font-weight="normal" text-anchor="middle" class="text">上门测量</text><circle cx="314" cy="131" r="12" fill="#444" stroke="#666" stroke-width="2" /><text x="314" y="136" font-size="10" fill="#888" font-weight="normal" text-anchor="middle" class="text">3</text><text x="314" y="160" font-size="10" fill="#666" font-weight="normal" text-anchor="middle" class="text">出具方案</text><rect x="20" y="210" width="335" height="350" rx="12" fill="#ffffff" fill-opacity="1"  /><text x="40" y="250" font-size="14" fill="#333" font-weight="bold" text-anchor="start" class="text">房屋类型 *</text><rect x="40" y="265" width="90" height="40" rx="6" fill="#fff8f0" fill-opacity="1" stroke="#c6a87c" stroke-width="1" /><text x="85" y="290" font-size="12" fill="#c6a87c" font-weight="normal" text-anchor="middle" class="text">毛坯房</text><rect x="140" y="265" width="90" height="40" rx="6" fill="#ffffff" fill-opacity="1" stroke="#ddd" stroke-width="1" /><text x="185" y="290" font-size="12" fill="#666" font-weight="normal" text-anchor="middle" class="text">旧房翻新</text><rect x="240" y="265" width="90" height="40" rx="6" fill="#ffffff" fill-opacity="1" stroke="#ddd" stroke-width="1" /><text x="285" y="290" font-size="12" fill="#666" font-weight="normal" text-anchor="middle" class="text">封阳台</text><text x="40" y="330" font-size="14" fill="#333" font-weight="bold" text-anchor="start" class="text">联系人 *</text><rect x="40" y="345" width="295" height="40" rx="6" fill="#f5f5f5" fill-opacity="1"  /><text x="50" y="370" font-size="12" fill="#999" font-weight="normal" text-anchor="start" class="text">请输入联系人</text><text x="40" y="405" font-size="14" fill="#333" font-weight="bold" text-anchor="start" class="text">手机号 *</text><rect x="40" y="420" width="295" height="40" rx="6" fill="#f5f5f5" fill-opacity="1"  /><text x="50" y="445" font-size="12" fill="#999" font-weight="normal" text-anchor="start" class="text">请输入手机号</text><text x="40" y="480" font-size="14" fill="#333" font-weight="bold" text-anchor="start" class="text">详细地址 *</text><rect x="40" y="495" width="295" height="40" rx="6" fill="#f5f5f5" fill-opacity="1"  /><text x="50" y="520" font-size="12" fill="#999" font-weight="normal" text-anchor="start" class="text">请输入详细地址</text><rect x="0" y="722" width="375" height="90" rx="0" fill="#ffffff" fill-opacity="1" stroke="#eee" stroke-width="1" /><rect x="30" y="742" width="315" height="50" rx="25" fill="#1a1a1a" fill-opacity="1"  /><text x="187.5" y="774" font-size="16" fill="#ffffff" font-weight="bold" text-anchor="middle" class="text">立即预约</text>
    </svg>