<svg xmlns="http://www.w3.org/2000/svg" viewBox="0 0 1200 800" width="1200" height="800">
    <style>
        .text { font-family: -apple-system, BlinkMacSystemFont, "Segoe UI", Roboto, Helvetica, Arial, sans-serif; }
        .shadow { filter: drop-shadow(0px 4px 4px rgba(0,0,0,0.1)); }
    </style>
    <rect width="100%" height="100%" fill="#f5f5f5"/>
    <rect x="0" y="0" width="1200" height="70" rx="0" fill="#ffffff" fill-opacity="1" stroke="#eee" stroke-width="1" /><text x="50" y="45" font-size="24" fill="#1a1a1a" font-weight="bold" text-anchor="start" class="text">JIJING.WINDOW</text><text x="400" y="45" font-size="14" fill="#333" font-weight="normal" text-anchor="start" class="text">首页</text><text x="500" y="45" font-size="14" fill="#333" font-weight="normal" text-anchor="start" class="text">产品系列</text><text x="600" y="45" font-size="14" fill="#333" font-weight="normal" text-anchor="start" class="text">品牌故事</text><text x="700" y="45" font-size="14" fill="#333" font-weight="normal" text-anchor="start" class="text">服务流程</text><rect x="1050" y="15" width="100" height="40" rx="2" fill="#1a1a1a" fill-opacity="1"  /><text x="1100" y="40" font-size="14" fill="#ffffff" font-weight="normal" text-anchor="middle" class="text">立即预约</text><rect x="0" y="70" width="1200" height="450" rx="0" fill="#2d2d2d" fill-opacity="1"  /><text x="600.0" y="250" font-size="48" fill="#ffffff" font-weight="bold" text-anchor="middle" class="text">重新定义 家 的边界</text><text x="600.0" y="300" font-size="18" fill="#cccccc" font-weight="normal" text-anchor="middle" class="text">静音 · 隔热 · 安全 —— 德系精工系统门窗</text><rect x="490.0" y="350" width="100" height="40" rx="0" fill="transparent" fill-opacity="1" stroke="#fff" stroke-width="1" /><text x="540.0" y="375" font-size="14" fill="#fff" font-weight="normal" text-anchor="middle" class="text">浏览产品</text><rect x="610.0" y="350" width="100" height="40" rx="0" fill="#c6a87c" fill-opacity="1"  /><text x="660.0" y="375" font-size="14" fill="#fff" font-weight="normal" text-anchor="middle" class="text">免费量尺</text><text x="600.0" y="560" font-size="24" fill="#333" font-weight="bold" text-anchor="middle" class="text">臻选系列</text><rect x="580.0" y="575" width="40" height="3" rx="0" fill="#c6a87c" fill-opacity="1"  /><rect x="150" y="580" width="280" height="180" rx="0" fill="#eee" fill-opacity="1"  /><text x="150" y="790" font-size="18" fill="#333" font-weight="bold" text-anchor="start" class="text">极光系列 · 平开窗</text><text x="150" y="815" font-size="12" fill="#666" font-weight="normal" text-anchor="start" class="text">极致视野 / 超强密封</text><rect x="470" y="580" width="280" height="180" rx="0" fill="#eee" fill-opacity="1"  /><text x="470" y="790" font-size="18" fill="#333" font-weight="bold" text-anchor="start" class="text">星际系列 · 推拉门</text><text x="470" y="815" font-size="12" fill="#666" font-weight="normal" text-anchor="start" class="text">极致视野 / 超强密封</text><rect x="790" y="580" width="280" height="180" rx="0" fill="#eee" fill-opacity="1"  /><text x="790" y="790" font-size="18" fill="#333" font-weight="bold" text-anchor="start" class="text">天幕系列 · 阳光房</text><text x="790" y="815" font-size="12" fill="#666" font-weight="normal" text-anchor="start" class="text">极致视野 / 超强密封</text>
    </svg>