<svg xmlns="http://www.w3.org/2000/svg" viewBox="0 0 1200 800" width="1200" height="800">
    <style>
        .text { font-family: -apple-system, BlinkMacSystemFont, "Segoe UI", Roboto, Helvetica, Arial, sans-serif; }
        .shadow { filter: drop-shadow(0px 4px 4px rgba(0,0,0,0.1)); }
    </style>
    <rect width="100%" height="100%" fill="#f5f5f5"/>
    <rect x="0" y="0" width="1200" height="70" rx="0" fill="#ffffff" fill-opacity="1" stroke="#eee" stroke-width="1" /><text x="50" y="45" font-size="24" fill="#1a1a1a" font-weight="bold" text-anchor="start" class="text">JIJING.WINDOW</text><rect x="100" y="120" width="600" height="450" rx="8" fill="#eeeeee" fill-opacity="1"  /><rect x="100" y="590" width="140" height="100" rx="4" fill="#e0e0e0" fill-opacity="1"  /><rect x="250" y="590" width="140" height="100" rx="4" fill="#f0f0f0" fill-opacity="1"  /><rect x="400" y="590" width="140" height="100" rx="4" fill="#f0f0f0" fill-opacity="1"  /><text x="750" y="150" font-size="32" fill="#1a1a1a" font-weight="bold" text-anchor="start" class="text">极光系列 · 系统平开窗</text><text x="750" y="180" font-size="14" fill="#999" font-weight="normal" text-anchor="start" class="text">Aurora Series System Casement Window</text><text x="750" y="230" font-size="36" fill="#c6a87c" font-weight="bold" text-anchor="start" class="text">¥1,280</text><text x="880" y="230" font-size="14" fill="#999" font-weight="normal" text-anchor="start" class="text">/ 平方米起</text><text x="750" y="280" font-size="14" fill="#333" font-weight="bold" text-anchor="start" class="text">1. 选择颜色</text><circle cx="775" cy="320" r="20" fill="#1a1a1a" stroke="#c6a87c" stroke-width="2" /><circle cx="835" cy="320" r="20" fill="#666" stroke="#ddd" stroke-width="2" /><circle cx="895" cy="320" r="20" fill="#8B4513" stroke="#ddd" stroke-width="2" /><circle cx="955" cy="320" r="20" fill="#f0f0f0" stroke="#ddd" stroke-width="2" /><text x="750" y="380" font-size="14" fill="#333" font-weight="bold" text-anchor="start" class="text">2. 玻璃配置</text><rect x="750" y="400" width="120" height="40" rx="4" fill="#fff8f0" fill-opacity="1" stroke="#c6a87c" stroke-width="1" /><text x="810" y="425" font-size="12" fill="#333" font-weight="normal" text-anchor="middle" class="text">标准中空</text><rect x="890" y="400" width="120" height="40" rx="4" fill="#fff" fill-opacity="1" stroke="#ddd" stroke-width="1" /><text x="950" y="425" font-size="12" fill="#666" font-weight="normal" text-anchor="middle" class="text">三玻两腔</text><rect x="750" y="500" width="350" height="60" rx="4" fill="#1a1a1a" fill-opacity="1"  /><text x="925" y="535" font-size="18" fill="#ffffff" font-weight="bold" text-anchor="middle" class="text">预约免费量尺</text><rect x="750" y="570" width="350" height="60" rx="4" fill="#ffffff" fill-opacity="1" stroke="#ddd" stroke-width="1" /><text x="925" y="605" font-size="18" fill="#333" font-weight="normal" text-anchor="middle" class="text">联系客服咨询</text>
    </svg>